<mxfile host="app.diagrams.net" modified="2022-06-17T07:41:43.436Z" agent="5.0 (Macintosh; Intel Mac OS X 10_15_7) AppleWebKit/605.1.15 (KHTML, like Gecko) Version/15.5 Safari/605.1.15" etag="HvBw-IaX5g8e1bYU1AV2" version="20.0.1" type="github">
  <diagram id="C5RBs43oDa-KdzZeNtuy" name="Page-1">
    <mxGraphModel dx="536" dy="317" grid="1" gridSize="10" guides="1" tooltips="1" connect="1" arrows="1" fold="1" page="1" pageScale="1" pageWidth="827" pageHeight="1169" math="0" shadow="0">
      <root>
        <mxCell id="WIyWlLk6GJQsqaUBKTNV-0" />
        <mxCell id="WIyWlLk6GJQsqaUBKTNV-1" parent="WIyWlLk6GJQsqaUBKTNV-0" />
        <mxCell id="_s9bOUgimZAPOXUXhFy9-30" value="" style="edgeStyle=orthogonalEdgeStyle;rounded=0;orthogonalLoop=1;jettySize=auto;html=1;fontFamily=Noto Serif SC;fontSource=https%3A%2F%2Ffonts.googleapis.com%2Fcss%3Ffamily%3DNoto%2BSerif%2BSC;fontSize=12;" edge="1" parent="WIyWlLk6GJQsqaUBKTNV-1" source="WIyWlLk6GJQsqaUBKTNV-3" target="_s9bOUgimZAPOXUXhFy9-24">
          <mxGeometry relative="1" as="geometry" />
        </mxCell>
        <mxCell id="WIyWlLk6GJQsqaUBKTNV-3" value="承办人在系统自动建议下选择定密依据" style="rounded=0;whiteSpace=wrap;html=1;fontSize=12;glass=0;strokeWidth=1;shadow=0;fontFamily=Noto Serif SC;fontSource=https%3A%2F%2Ffonts.googleapis.com%2Fcss%3Ffamily%3DNoto%2BSerif%2BSC;" parent="WIyWlLk6GJQsqaUBKTNV-1" vertex="1">
          <mxGeometry x="160" y="80" width="120" height="40" as="geometry" />
        </mxCell>
        <mxCell id="_s9bOUgimZAPOXUXhFy9-0" value="是否有权选择此定密依据？" style="rhombus;whiteSpace=wrap;html=1;fontFamily=Noto Serif SC;fontSource=https%3A%2F%2Ffonts.googleapis.com%2Fcss%3Ffamily%3DNoto%2BSerif%2BSC;verticalAlign=middle;horizontal=1;fontSize=12;spacing=5;labelBackgroundColor=none;strokeColor=default;fillColor=default;gradientColor=none;rounded=0;shadow=0;sketch=0;" vertex="1" parent="WIyWlLk6GJQsqaUBKTNV-1">
          <mxGeometry x="172.5" y="220" width="95" height="60" as="geometry" />
        </mxCell>
        <mxCell id="_s9bOUgimZAPOXUXhFy9-1" value="定密责任人审核" style="rounded=0;whiteSpace=wrap;html=1;fontSize=12;glass=0;strokeWidth=1;shadow=0;fontFamily=Noto Serif SC;fontSource=https%3A%2F%2Ffonts.googleapis.com%2Fcss%3Ffamily%3DNoto%2BSerif%2BSC;" vertex="1" parent="WIyWlLk6GJQsqaUBKTNV-1">
          <mxGeometry x="160" y="310" width="120" height="40" as="geometry" />
        </mxCell>
        <mxCell id="_s9bOUgimZAPOXUXhFy9-3" value="" style="endArrow=classic;html=1;rounded=0;fontFamily=Noto Serif SC;fontSource=https%3A%2F%2Ffonts.googleapis.com%2Fcss%3Ffamily%3DNoto%2BSerif%2BSC;fontSize=12;exitX=1;exitY=0.5;exitDx=0;exitDy=0;entryX=0;entryY=0.5;entryDx=0;entryDy=0;" edge="1" parent="WIyWlLk6GJQsqaUBKTNV-1" source="_s9bOUgimZAPOXUXhFy9-0" target="_s9bOUgimZAPOXUXhFy9-26">
          <mxGeometry width="50" height="50" relative="1" as="geometry">
            <mxPoint x="300" y="270" as="sourcePoint" />
            <mxPoint x="330" y="250" as="targetPoint" />
          </mxGeometry>
        </mxCell>
        <mxCell id="_s9bOUgimZAPOXUXhFy9-15" value="否" style="edgeLabel;html=1;align=center;verticalAlign=middle;resizable=0;points=[];fontSize=12;fontFamily=Noto Serif SC;" vertex="1" connectable="0" parent="_s9bOUgimZAPOXUXhFy9-3">
          <mxGeometry x="-0.3074" y="3" relative="1" as="geometry">
            <mxPoint x="1" y="-7" as="offset" />
          </mxGeometry>
        </mxCell>
        <mxCell id="_s9bOUgimZAPOXUXhFy9-5" value="开始" style="rounded=1;whiteSpace=wrap;html=1;shadow=0;labelBackgroundColor=none;sketch=0;fontFamily=Noto Serif SC;fontSource=https%3A%2F%2Ffonts.googleapis.com%2Fcss%3Ffamily%3DNoto%2BSerif%2BSC;fontSize=12;strokeColor=default;fillColor=default;gradientColor=none;" vertex="1" parent="WIyWlLk6GJQsqaUBKTNV-1">
          <mxGeometry x="200" y="20" width="40" height="20" as="geometry" />
        </mxCell>
        <mxCell id="_s9bOUgimZAPOXUXhFy9-6" value="" style="endArrow=classic;html=1;rounded=0;fontFamily=Noto Serif SC;fontSource=https%3A%2F%2Ffonts.googleapis.com%2Fcss%3Ffamily%3DNoto%2BSerif%2BSC;fontSize=12;exitX=0.5;exitY=1;exitDx=0;exitDy=0;entryX=0.5;entryY=0;entryDx=0;entryDy=0;" edge="1" parent="WIyWlLk6GJQsqaUBKTNV-1" source="_s9bOUgimZAPOXUXhFy9-5" target="WIyWlLk6GJQsqaUBKTNV-3">
          <mxGeometry width="50" height="50" relative="1" as="geometry">
            <mxPoint x="230" y="150" as="sourcePoint" />
            <mxPoint x="280" y="100" as="targetPoint" />
          </mxGeometry>
        </mxCell>
        <mxCell id="_s9bOUgimZAPOXUXhFy9-9" value="" style="endArrow=classic;html=1;rounded=0;fontFamily=Noto Serif SC;fontSource=https%3A%2F%2Ffonts.googleapis.com%2Fcss%3Ffamily%3DNoto%2BSerif%2BSC;fontSize=12;" edge="1" parent="WIyWlLk6GJQsqaUBKTNV-1" source="_s9bOUgimZAPOXUXhFy9-0" target="_s9bOUgimZAPOXUXhFy9-1">
          <mxGeometry width="50" height="50" relative="1" as="geometry">
            <mxPoint x="220" y="330" as="sourcePoint" />
            <mxPoint x="220" y="310" as="targetPoint" />
          </mxGeometry>
        </mxCell>
        <mxCell id="_s9bOUgimZAPOXUXhFy9-16" value="是" style="edgeLabel;html=1;align=center;verticalAlign=middle;resizable=0;points=[];fontSize=12;fontFamily=Noto Serif SC;" vertex="1" connectable="0" parent="_s9bOUgimZAPOXUXhFy9-9">
          <mxGeometry x="-0.1714" y="1" relative="1" as="geometry">
            <mxPoint x="9" y="-3" as="offset" />
          </mxGeometry>
        </mxCell>
        <mxCell id="_s9bOUgimZAPOXUXhFy9-13" style="edgeStyle=orthogonalEdgeStyle;rounded=0;orthogonalLoop=1;jettySize=auto;html=1;entryX=1;entryY=0.5;entryDx=0;entryDy=0;fontFamily=Noto Serif SC;fontSource=https%3A%2F%2Ffonts.googleapis.com%2Fcss%3Ffamily%3DNoto%2BSerif%2BSC;fontSize=12;" edge="1" parent="WIyWlLk6GJQsqaUBKTNV-1" source="_s9bOUgimZAPOXUXhFy9-10" target="_s9bOUgimZAPOXUXhFy9-12">
          <mxGeometry relative="1" as="geometry" />
        </mxCell>
        <mxCell id="_s9bOUgimZAPOXUXhFy9-19" style="edgeStyle=orthogonalEdgeStyle;rounded=0;orthogonalLoop=1;jettySize=auto;html=1;entryX=0.5;entryY=0;entryDx=0;entryDy=0;fontFamily=Noto Serif SC;fontSource=https%3A%2F%2Ffonts.googleapis.com%2Fcss%3Ffamily%3DNoto%2BSerif%2BSC;fontSize=12;" edge="1" parent="WIyWlLk6GJQsqaUBKTNV-1" source="_s9bOUgimZAPOXUXhFy9-10" target="_s9bOUgimZAPOXUXhFy9-17">
          <mxGeometry relative="1" as="geometry" />
        </mxCell>
        <mxCell id="_s9bOUgimZAPOXUXhFy9-10" value="审核是否通过？" style="rhombus;whiteSpace=wrap;html=1;fontFamily=Noto Serif SC;fontSource=https%3A%2F%2Ffonts.googleapis.com%2Fcss%3Ffamily%3DNoto%2BSerif%2BSC;verticalAlign=middle;horizontal=1;fontSize=12;spacing=5;labelBackgroundColor=none;strokeColor=default;fillColor=default;gradientColor=none;rounded=0;shadow=0;sketch=0;" vertex="1" parent="WIyWlLk6GJQsqaUBKTNV-1">
          <mxGeometry x="172.5" y="370" width="95" height="60" as="geometry" />
        </mxCell>
        <mxCell id="_s9bOUgimZAPOXUXhFy9-11" value="" style="endArrow=classic;html=1;rounded=0;fontFamily=Noto Serif SC;fontSource=https%3A%2F%2Ffonts.googleapis.com%2Fcss%3Ffamily%3DNoto%2BSerif%2BSC;fontSize=12;" edge="1" parent="WIyWlLk6GJQsqaUBKTNV-1">
          <mxGeometry width="50" height="50" relative="1" as="geometry">
            <mxPoint x="219.71" y="350" as="sourcePoint" />
            <mxPoint x="220" y="370" as="targetPoint" />
          </mxGeometry>
        </mxCell>
        <mxCell id="_s9bOUgimZAPOXUXhFy9-14" style="edgeStyle=orthogonalEdgeStyle;rounded=0;orthogonalLoop=1;jettySize=auto;html=1;fontFamily=Noto Serif SC;fontSource=https%3A%2F%2Ffonts.googleapis.com%2Fcss%3Ffamily%3DNoto%2BSerif%2BSC;fontSize=12;" edge="1" parent="WIyWlLk6GJQsqaUBKTNV-1" source="_s9bOUgimZAPOXUXhFy9-12">
          <mxGeometry relative="1" as="geometry">
            <mxPoint x="220" y="60" as="targetPoint" />
            <Array as="points">
              <mxPoint x="85" y="130" />
              <mxPoint x="85" y="130" />
            </Array>
          </mxGeometry>
        </mxCell>
        <mxCell id="_s9bOUgimZAPOXUXhFy9-12" value="定密责任人提出更改意见" style="rounded=0;whiteSpace=wrap;html=1;fontSize=12;glass=0;strokeWidth=1;shadow=0;fontFamily=Noto Serif SC;fontSource=https%3A%2F%2Ffonts.googleapis.com%2Fcss%3Ffamily%3DNoto%2BSerif%2BSC;" vertex="1" parent="WIyWlLk6GJQsqaUBKTNV-1">
          <mxGeometry x="40" y="380" width="90" height="40" as="geometry" />
        </mxCell>
        <mxCell id="_s9bOUgimZAPOXUXhFy9-20" style="edgeStyle=orthogonalEdgeStyle;rounded=0;orthogonalLoop=1;jettySize=auto;html=1;entryX=0.5;entryY=0;entryDx=0;entryDy=0;fontFamily=Noto Serif SC;fontSource=https%3A%2F%2Ffonts.googleapis.com%2Fcss%3Ffamily%3DNoto%2BSerif%2BSC;fontSize=12;" edge="1" parent="WIyWlLk6GJQsqaUBKTNV-1" source="_s9bOUgimZAPOXUXhFy9-17" target="_s9bOUgimZAPOXUXhFy9-18">
          <mxGeometry relative="1" as="geometry" />
        </mxCell>
        <mxCell id="_s9bOUgimZAPOXUXhFy9-17" value="系统生成密级标识&lt;br&gt;文件转移至保密数据库" style="rounded=0;whiteSpace=wrap;html=1;fontSize=12;glass=0;strokeWidth=1;shadow=0;fontFamily=Noto Serif SC;fontSource=https%3A%2F%2Ffonts.googleapis.com%2Fcss%3Ffamily%3DNoto%2BSerif%2BSC;" vertex="1" parent="WIyWlLk6GJQsqaUBKTNV-1">
          <mxGeometry x="155" y="450" width="130" height="40" as="geometry" />
        </mxCell>
        <mxCell id="_s9bOUgimZAPOXUXhFy9-22" style="edgeStyle=orthogonalEdgeStyle;rounded=0;orthogonalLoop=1;jettySize=auto;html=1;entryX=0.5;entryY=0;entryDx=0;entryDy=0;fontFamily=Noto Serif SC;fontSource=https%3A%2F%2Ffonts.googleapis.com%2Fcss%3Ffamily%3DNoto%2BSerif%2BSC;fontSize=12;" edge="1" parent="WIyWlLk6GJQsqaUBKTNV-1" source="_s9bOUgimZAPOXUXhFy9-18" target="_s9bOUgimZAPOXUXhFy9-21">
          <mxGeometry relative="1" as="geometry" />
        </mxCell>
        <mxCell id="_s9bOUgimZAPOXUXhFy9-18" value="系统保留此次流程的记录" style="rounded=0;whiteSpace=wrap;html=1;fontSize=12;glass=0;strokeWidth=1;shadow=0;fontFamily=Noto Serif SC;fontSource=https%3A%2F%2Ffonts.googleapis.com%2Fcss%3Ffamily%3DNoto%2BSerif%2BSC;" vertex="1" parent="WIyWlLk6GJQsqaUBKTNV-1">
          <mxGeometry x="147.5" y="510" width="145" height="20" as="geometry" />
        </mxCell>
        <mxCell id="_s9bOUgimZAPOXUXhFy9-21" value="结束" style="rounded=1;whiteSpace=wrap;html=1;shadow=0;labelBackgroundColor=none;sketch=0;fontFamily=Noto Serif SC;fontSource=https%3A%2F%2Ffonts.googleapis.com%2Fcss%3Ffamily%3DNoto%2BSerif%2BSC;fontSize=12;strokeColor=default;fillColor=default;gradientColor=none;" vertex="1" parent="WIyWlLk6GJQsqaUBKTNV-1">
          <mxGeometry x="200" y="575" width="40" height="20" as="geometry" />
        </mxCell>
        <mxCell id="_s9bOUgimZAPOXUXhFy9-29" style="edgeStyle=orthogonalEdgeStyle;rounded=0;orthogonalLoop=1;jettySize=auto;html=1;entryX=0;entryY=0.5;entryDx=0;entryDy=0;fontFamily=Noto Serif SC;fontSource=https%3A%2F%2Ffonts.googleapis.com%2Fcss%3Ffamily%3DNoto%2BSerif%2BSC;fontSize=12;" edge="1" parent="WIyWlLk6GJQsqaUBKTNV-1" source="_s9bOUgimZAPOXUXhFy9-24" target="_s9bOUgimZAPOXUXhFy9-27">
          <mxGeometry relative="1" as="geometry" />
        </mxCell>
        <mxCell id="_s9bOUgimZAPOXUXhFy9-37" value="否" style="edgeLabel;html=1;align=center;verticalAlign=middle;resizable=0;points=[];fontSize=12;fontFamily=Noto Serif SC;" vertex="1" connectable="0" parent="_s9bOUgimZAPOXUXhFy9-29">
          <mxGeometry x="-0.5682" relative="1" as="geometry">
            <mxPoint x="2" y="-10" as="offset" />
          </mxGeometry>
        </mxCell>
        <mxCell id="_s9bOUgimZAPOXUXhFy9-32" style="edgeStyle=orthogonalEdgeStyle;rounded=0;orthogonalLoop=1;jettySize=auto;html=1;entryX=0.5;entryY=0;entryDx=0;entryDy=0;fontFamily=Noto Serif SC;fontSource=https%3A%2F%2Ffonts.googleapis.com%2Fcss%3Ffamily%3DNoto%2BSerif%2BSC;fontSize=12;" edge="1" parent="WIyWlLk6GJQsqaUBKTNV-1" source="_s9bOUgimZAPOXUXhFy9-24" target="_s9bOUgimZAPOXUXhFy9-0">
          <mxGeometry relative="1" as="geometry" />
        </mxCell>
        <mxCell id="_s9bOUgimZAPOXUXhFy9-36" value="是" style="edgeLabel;html=1;align=center;verticalAlign=middle;resizable=0;points=[];fontSize=12;fontFamily=Noto Serif SC;" vertex="1" connectable="0" parent="_s9bOUgimZAPOXUXhFy9-32">
          <mxGeometry x="0.5286" y="-2" relative="1" as="geometry">
            <mxPoint x="12" as="offset" />
          </mxGeometry>
        </mxCell>
        <mxCell id="_s9bOUgimZAPOXUXhFy9-24" value="能否确定定密依据？" style="rhombus;whiteSpace=wrap;html=1;fontFamily=Noto Serif SC;fontSource=https%3A%2F%2Ffonts.googleapis.com%2Fcss%3Ffamily%3DNoto%2BSerif%2BSC;verticalAlign=middle;horizontal=1;fontSize=12;spacing=5;labelBackgroundColor=none;strokeColor=default;fillColor=default;gradientColor=none;rounded=0;shadow=0;sketch=0;" vertex="1" parent="WIyWlLk6GJQsqaUBKTNV-1">
          <mxGeometry x="172.5" y="140" width="95" height="60" as="geometry" />
        </mxCell>
        <mxCell id="_s9bOUgimZAPOXUXhFy9-34" style="edgeStyle=orthogonalEdgeStyle;rounded=0;orthogonalLoop=1;jettySize=auto;html=1;entryX=0.5;entryY=0;entryDx=0;entryDy=0;fontFamily=Noto Serif SC;fontSource=https%3A%2F%2Ffonts.googleapis.com%2Fcss%3Ffamily%3DNoto%2BSerif%2BSC;fontSize=12;exitX=1;exitY=0.5;exitDx=0;exitDy=0;" edge="1" parent="WIyWlLk6GJQsqaUBKTNV-1" source="_s9bOUgimZAPOXUXhFy9-26" target="_s9bOUgimZAPOXUXhFy9-28">
          <mxGeometry relative="1" as="geometry" />
        </mxCell>
        <mxCell id="_s9bOUgimZAPOXUXhFy9-26" value="填写&lt;br&gt;《无权定密事项定密申报表》" style="rounded=0;whiteSpace=wrap;html=1;fontSize=12;glass=0;strokeWidth=1;shadow=0;fontFamily=Noto Serif SC;fontSource=https%3A%2F%2Ffonts.googleapis.com%2Fcss%3Ffamily%3DNoto%2BSerif%2BSC;" vertex="1" parent="WIyWlLk6GJQsqaUBKTNV-1">
          <mxGeometry x="300" y="230" width="90" height="40" as="geometry" />
        </mxCell>
        <mxCell id="_s9bOUgimZAPOXUXhFy9-33" style="edgeStyle=orthogonalEdgeStyle;rounded=0;orthogonalLoop=1;jettySize=auto;html=1;fontFamily=Noto Serif SC;fontSource=https%3A%2F%2Ffonts.googleapis.com%2Fcss%3Ffamily%3DNoto%2BSerif%2BSC;fontSize=12;entryX=0.5;entryY=0;entryDx=0;entryDy=0;exitX=1;exitY=0.5;exitDx=0;exitDy=0;" edge="1" parent="WIyWlLk6GJQsqaUBKTNV-1" source="_s9bOUgimZAPOXUXhFy9-27" target="_s9bOUgimZAPOXUXhFy9-28">
          <mxGeometry relative="1" as="geometry">
            <mxPoint x="410" y="170" as="targetPoint" />
          </mxGeometry>
        </mxCell>
        <mxCell id="_s9bOUgimZAPOXUXhFy9-27" value="填写&lt;br&gt;《不明确事项定密申报表》" style="rounded=0;whiteSpace=wrap;html=1;fontSize=12;glass=0;strokeWidth=1;shadow=0;fontFamily=Noto Serif SC;fontSource=https%3A%2F%2Ffonts.googleapis.com%2Fcss%3Ffamily%3DNoto%2BSerif%2BSC;" vertex="1" parent="WIyWlLk6GJQsqaUBKTNV-1">
          <mxGeometry x="300" y="150" width="90" height="40" as="geometry" />
        </mxCell>
        <mxCell id="_s9bOUgimZAPOXUXhFy9-35" style="edgeStyle=orthogonalEdgeStyle;rounded=0;orthogonalLoop=1;jettySize=auto;html=1;entryX=0.5;entryY=0;entryDx=0;entryDy=0;fontFamily=Noto Serif SC;fontSource=https%3A%2F%2Ffonts.googleapis.com%2Fcss%3Ffamily%3DNoto%2BSerif%2BSC;fontSize=12;" edge="1" parent="WIyWlLk6GJQsqaUBKTNV-1" source="_s9bOUgimZAPOXUXhFy9-28" target="_s9bOUgimZAPOXUXhFy9-21">
          <mxGeometry relative="1" as="geometry">
            <Array as="points">
              <mxPoint x="418" y="550" />
              <mxPoint x="220" y="550" />
            </Array>
          </mxGeometry>
        </mxCell>
        <mxCell id="_s9bOUgimZAPOXUXhFy9-28" value="等待上级主管机关、单位批复" style="shape=process;whiteSpace=wrap;html=1;backgroundOutline=1;rounded=0;shadow=0;labelBackgroundColor=none;sketch=0;fontFamily=Noto Serif SC;fontSource=https%3A%2F%2Ffonts.googleapis.com%2Fcss%3Ffamily%3DNoto%2BSerif%2BSC;fontSize=12;strokeColor=default;fillColor=default;gradientColor=none;" vertex="1" parent="WIyWlLk6GJQsqaUBKTNV-1">
          <mxGeometry x="360" y="310" width="116" height="40" as="geometry" />
        </mxCell>
      </root>
    </mxGraphModel>
  </diagram>
</mxfile>
